<mxfile host="app.diagrams.net" modified="2023-11-28T08:24:34.235Z" agent="Mozilla/5.0 (Windows NT 10.0; Win64; x64) AppleWebKit/537.36 (KHTML, like Gecko) Chrome/119.0.0.0 Safari/537.36 Edg/119.0.0.0" etag="4m9FJY-WFiiYrx-HdTKp" version="21.8.2" type="device">
  <diagram name="Page-1" id="Hwm7O50D1UeDPckyXpuu">
    <mxGraphModel dx="988" dy="561" grid="1" gridSize="10" guides="1" tooltips="1" connect="1" arrows="1" fold="1" page="1" pageScale="1" pageWidth="850" pageHeight="1100" math="0" shadow="0">
      <root>
        <mxCell id="0" />
        <mxCell id="1" parent="0" />
        <mxCell id="_FKx2QwUbCYZh597F8Df-7" value="" style="edgeStyle=orthogonalEdgeStyle;rounded=0;orthogonalLoop=1;jettySize=auto;html=1;" edge="1" parent="1" source="_FKx2QwUbCYZh597F8Df-1" target="_FKx2QwUbCYZh597F8Df-2">
          <mxGeometry relative="1" as="geometry" />
        </mxCell>
        <mxCell id="_FKx2QwUbCYZh597F8Df-1" value="Child" style="rounded=0;whiteSpace=wrap;html=1;" vertex="1" parent="1">
          <mxGeometry x="70" y="260" width="120" height="60" as="geometry" />
        </mxCell>
        <mxCell id="_FKx2QwUbCYZh597F8Df-2" value="Grandchild" style="rounded=0;whiteSpace=wrap;html=1;" vertex="1" parent="1">
          <mxGeometry x="70" y="380" width="120" height="60" as="geometry" />
        </mxCell>
        <mxCell id="_FKx2QwUbCYZh597F8Df-6" value="" style="edgeStyle=orthogonalEdgeStyle;rounded=0;orthogonalLoop=1;jettySize=auto;html=1;" edge="1" parent="1" source="_FKx2QwUbCYZh597F8Df-3" target="_FKx2QwUbCYZh597F8Df-1">
          <mxGeometry relative="1" as="geometry" />
        </mxCell>
        <mxCell id="_FKx2QwUbCYZh597F8Df-3" value="Parent" style="rounded=0;whiteSpace=wrap;html=1;" vertex="1" parent="1">
          <mxGeometry x="70" y="130" width="120" height="60" as="geometry" />
        </mxCell>
        <mxCell id="_FKx2QwUbCYZh597F8Df-8" value="" style="edgeStyle=orthogonalEdgeStyle;rounded=0;orthogonalLoop=1;jettySize=auto;html=1;" edge="1" parent="1" source="_FKx2QwUbCYZh597F8Df-9" target="_FKx2QwUbCYZh597F8Df-10">
          <mxGeometry relative="1" as="geometry" />
        </mxCell>
        <mxCell id="_FKx2QwUbCYZh597F8Df-9" value="Child" style="rounded=0;whiteSpace=wrap;html=1;" vertex="1" parent="1">
          <mxGeometry x="240" y="260" width="120" height="60" as="geometry" />
        </mxCell>
        <mxCell id="_FKx2QwUbCYZh597F8Df-10" value="Grandchild" style="rounded=0;whiteSpace=wrap;html=1;" vertex="1" parent="1">
          <mxGeometry x="240" y="380" width="120" height="60" as="geometry" />
        </mxCell>
        <mxCell id="_FKx2QwUbCYZh597F8Df-11" value="" style="edgeStyle=orthogonalEdgeStyle;rounded=0;orthogonalLoop=1;jettySize=auto;html=1;" edge="1" parent="1" source="_FKx2QwUbCYZh597F8Df-12" target="_FKx2QwUbCYZh597F8Df-9">
          <mxGeometry relative="1" as="geometry" />
        </mxCell>
        <mxCell id="_FKx2QwUbCYZh597F8Df-20" value="" style="edgeStyle=orthogonalEdgeStyle;rounded=0;orthogonalLoop=1;jettySize=auto;html=1;" edge="1" parent="1" source="_FKx2QwUbCYZh597F8Df-12" target="_FKx2QwUbCYZh597F8Df-19">
          <mxGeometry relative="1" as="geometry" />
        </mxCell>
        <mxCell id="_FKx2QwUbCYZh597F8Df-12" value="Parent" style="rounded=0;whiteSpace=wrap;html=1;" vertex="1" parent="1">
          <mxGeometry x="320" y="130" width="120" height="60" as="geometry" />
        </mxCell>
        <mxCell id="_FKx2QwUbCYZh597F8Df-13" value="" style="edgeStyle=orthogonalEdgeStyle;rounded=0;orthogonalLoop=1;jettySize=auto;html=1;" edge="1" parent="1" source="_FKx2QwUbCYZh597F8Df-14" target="_FKx2QwUbCYZh597F8Df-15">
          <mxGeometry relative="1" as="geometry" />
        </mxCell>
        <mxCell id="_FKx2QwUbCYZh597F8Df-14" value="Child" style="rounded=0;whiteSpace=wrap;html=1;" vertex="1" parent="1">
          <mxGeometry x="620" y="260" width="120" height="60" as="geometry" />
        </mxCell>
        <mxCell id="_FKx2QwUbCYZh597F8Df-15" value="Grandchild" style="rounded=0;whiteSpace=wrap;html=1;" vertex="1" parent="1">
          <mxGeometry x="620" y="400" width="120" height="60" as="geometry" />
        </mxCell>
        <mxCell id="_FKx2QwUbCYZh597F8Df-16" value="" style="edgeStyle=orthogonalEdgeStyle;rounded=0;orthogonalLoop=1;jettySize=auto;html=1;exitX=0.5;exitY=1;exitDx=0;exitDy=0;" edge="1" parent="1" source="_FKx2QwUbCYZh597F8Df-17" target="_FKx2QwUbCYZh597F8Df-14">
          <mxGeometry relative="1" as="geometry" />
        </mxCell>
        <mxCell id="_FKx2QwUbCYZh597F8Df-23" value="" style="edgeStyle=orthogonalEdgeStyle;rounded=0;orthogonalLoop=1;jettySize=auto;html=1;exitX=0.5;exitY=1;exitDx=0;exitDy=0;" edge="1" parent="1" source="_FKx2QwUbCYZh597F8Df-22" target="_FKx2QwUbCYZh597F8Df-14">
          <mxGeometry relative="1" as="geometry">
            <mxPoint x="830" y="250" as="sourcePoint" />
          </mxGeometry>
        </mxCell>
        <mxCell id="_FKx2QwUbCYZh597F8Df-17" value="Parent" style="rounded=0;whiteSpace=wrap;html=1;" vertex="1" parent="1">
          <mxGeometry x="530" y="130" width="120" height="60" as="geometry" />
        </mxCell>
        <mxCell id="_FKx2QwUbCYZh597F8Df-19" value="Child" style="rounded=0;whiteSpace=wrap;html=1;" vertex="1" parent="1">
          <mxGeometry x="400" y="260" width="120" height="60" as="geometry" />
        </mxCell>
        <mxCell id="_FKx2QwUbCYZh597F8Df-22" value="Parent" style="rounded=0;whiteSpace=wrap;html=1;" vertex="1" parent="1">
          <mxGeometry x="710" y="130" width="120" height="60" as="geometry" />
        </mxCell>
        <mxCell id="_FKx2QwUbCYZh597F8Df-25" value="" style="endArrow=none;html=1;rounded=0;fillColor=#f8cecc;strokeColor=#b85450;" edge="1" parent="1">
          <mxGeometry width="50" height="50" relative="1" as="geometry">
            <mxPoint x="550" y="480" as="sourcePoint" />
            <mxPoint x="840" y="110" as="targetPoint" />
          </mxGeometry>
        </mxCell>
        <mxCell id="_FKx2QwUbCYZh597F8Df-26" value="" style="endArrow=none;html=1;rounded=0;fillColor=#f8cecc;strokeColor=#b85450;" edge="1" parent="1">
          <mxGeometry width="50" height="50" relative="1" as="geometry">
            <mxPoint x="840" y="460" as="sourcePoint" />
            <mxPoint x="520" y="90" as="targetPoint" />
          </mxGeometry>
        </mxCell>
      </root>
    </mxGraphModel>
  </diagram>
</mxfile>
